<?xml version="1.0" standalone="no"?>
<!DOCTYPE svg PUBLIC "-//W3C//DTD SVG 1.1//EN" "http://www.w3.org/Graphics/SVG/1.1/DTD/svg11.dtd" >
<svg xmlns="http://www.w3.org/2000/svg">
<metadata>
This is a custom SVG webfont generated by Font Squirrel.
Copyright   : Copyright c 2008 by BV Fonts All rights reserved
Designer    : Jess Latham
Foundry     : BV Fonts
</metadata>
<defs>
<font id="webfonti5dhsgtf" horiz-adv-x="784" >
<font-face units-per-em="2048" ascent="1536" descent="-512" />
<missing-glyph horiz-adv-x="262" />
<glyph unicode=" "  horiz-adv-x="262" />
<glyph unicode="&#x09;" horiz-adv-x="262" />
<glyph unicode="&#xa0;" horiz-adv-x="262" />
<glyph unicode="!" horiz-adv-x="417" d="M-150 840q0 217 87 309q59 61 282 61q133 0 237.5 -38.5t118.5 -112.5q23 -113 -17 -326t-91 -383q78 -72 78 -182q0 -143 -84 -227t-248 -80q-174 4 -257 93t-75 236q6 84 60 152q-35 84 -63 229.5t-28 268.5z" />
<glyph unicode="&#x22;" horiz-adv-x="243" d="M-244 977q0 135 23 205q47 150 231 149q102 0 174 -49q66 31 140 31q78 0 149.5 -43t85.5 -105q6 -23 0 -59.5t-28 -97.5l-36 -104q-15 -42 -53 -130q-43 -102 -178 -102q-76 0 -145 41q-47 -27 -111 -27q-106 0 -180 55q-72 56 -72 236z" />
<glyph unicode="#" horiz-adv-x="409" d="M-152 737q0 53 25 103q-18 41 -18 86q0 121 69 166q39 16 47 18q14 57 64 86q47 31 110 31q53 0 103 -25q37 18 88 19q59 0 123.5 -40t79.5 -87q35 -10 59 -43q37 -53 37 -119q0 -68 -33 -121q-16 -25 -24 -33v-18q-2 -41 -31 -102.5t-43 -75.5q-16 -16 -35 -29 q-6 -6 -10 -33q2 -68 -44 -104.5t-122 -36.5q-80 0 -125 35q-33 -8 -57 -8q-61 0 -117.5 31.5t-79.5 88.5q-4 14 -8 60q-58 63 -58 151z" />
<glyph unicode="$" horiz-adv-x="485" d="M-180 385q0 139 90 221q-55 74 -55 180q0 68 18 119v-2q33 94 117 156q-10 66 16.5 113t95 72.5t146.5 25.5q170 0 229 -82q25 -39 25 -80q0 -2 -6 -45q59 -37 104 -100q43 -70 43 -152q0 -106 -68 -190q92 -94 87 -248q-2 -145 -134 -262q23 -63 23 -107q0 -55 -31 -94 q-68 -86 -262 -86q-160 0 -223 63q-51 49 -51 125q0 33 12 78q-119 74 -158 182q-18 50 -18 113z" />
<glyph unicode="%" horiz-adv-x="968" d="M-188 797q10 188 113.5 300.5t295.5 112.5q197 0 295 -90q23 23 29 31q74 61 219 61q143 0 240.5 -61t70.5 -176q-27 -96 -166 -252q221 -92 221 -406q0 -61 -8 -115.5t-34.5 -116.5t-69.5 -107.5t-120 -75t-179 -29.5q-174 0 -285 88q-20 -39 -43 -57q-66 -53 -186 -54 q-106 0 -200.5 45.5t-110.5 116.5q-18 102 137 359q-227 104 -219 426z" />
<glyph unicode="&#x26;" horiz-adv-x="888" d="M-174 272q0 172 92 365q-49 92 -49 199q0 41 2 53q20 182 152.5 263t291.5 65q35 -4 86 -21q80 49 217 49q68 0 127.5 -22.5t85.5 -63.5q25 -57 47.5 -274t10.5 -256q-16 -31 -60 -60l160 -178h23q63 0 99 -47t36 -125t-53 -168h2q-98 -170 -295 -170q-94 0 -166 35 q-150 -80 -342 -80q-150 0 -260 60q-207 108 -207 376z" />
<glyph unicode="'" horiz-adv-x="71" d="M-244 977q0 131 23 205q25 88 83 118.5t148 30.5q86 0 161 -44t87 -103q12 -66 -61 -369q-18 -61 -71.5 -95t-117.5 -34q-111 0 -180 55q-72 66 -72 236z" />
<glyph unicode="(" horiz-adv-x="530" d="M-178 496q0 199 100 405q90 166 236.5 266.5t228.5 114.5q59 8 134 -57.5t116 -144.5t12 -105q-70 -72 -108.5 -194t-42.5 -257q14 -164 61 -291t86 -180l23 -28q35 -45 -21.5 -124t-148.5 -134.5t-144 -40.5q-203 57 -368 270q-164 217 -164 500z" />
<glyph unicode=")" horiz-adv-x="530" d="M-147 -31q-16 47 14 78q47 61 93 183t56 292q-2 137 -42 259t-111 194q-29 27 12 105.5t117 144t135 57.5q53 -8 128 -46t173 -128t162 -207q102 -215 102 -405q0 -281 -166 -500q-164 -211 -368 -270q-57 -20 -168.5 68.5t-136.5 174.5z" />
<glyph unicode="*" horiz-adv-x="735" d="M-152 768q0 55 7 84q47 227 241 227h17q27 63 95 105.5t173 42.5q217 0 262 -150h6q74 0 139.5 -47t96.5 -160q14 -57 14 -102q0 -129 -84 -205q12 -37 12 -69q0 -137 -114 -232q-90 -70 -189 -69q-88 0 -153 51q-57 -31 -121 -31q-90 0 -189 61q-129 88 -129 226 q0 33 9 59q-93 66 -93 209z" />
<glyph unicode="+" horiz-adv-x="907" d="M-90 582q0 197 86 264q47 33 125 33q0 84 10 114q18 53 103 81t192 28q111 0 212 -30t130 -79q16 -29 16 -96q37 0 62 -8q74 -18 111.5 -101t37.5 -196t-34.5 -218.5t-92.5 -142.5q-37 -20 -90 -28q0 -70 -28 -111q-72 -96 -285 -96q-86 0 -166 18.5t-115 48.5 q-57 53 -59 140q-43 0 -72 12q-68 31 -105.5 138.5t-37.5 228.5z" />
<glyph unicode="," horiz-adv-x="305" d="M-190 209q0 160 118 248q82 63 213 63q180 0 287 -112q90 -106 90 -256q0 -133 -65 -242q-76 -121 -196 -186.5t-202 -67.5q-37 0 -98 61.5t-99 137t-14 110.5l35 45q-69 86 -69 199z" />
<glyph unicode="-" d="M-39 494q0 172 76 227q72 51 321 51q233 0 328 -24q61 -20 95 -91t34 -161q0 -88 -28.5 -174t-73.5 -121q-98 -47 -355 -47q-199 0 -264 26q-59 29 -96 123.5t-37 190.5z" />
<glyph unicode="." horiz-adv-x="286" d="M-188 242q8 147 120.5 220t264.5 58q117 0 210 -89t93 -212q0 -154 -88 -244t-256 -88q-180 6 -264 101.5t-80 253.5z" />
<glyph unicode="/" horiz-adv-x="348" d="M-147 -53q-43 57 100 577t199 576q70 70 215 69q82 0 147.5 -33.5t79.5 -99.5q10 -47 -139.5 -556t-188.5 -552q-68 -68 -198 -67q-149 0 -215 86z" />
<glyph unicode="0" horiz-adv-x="796" d="M-162 575q8 295 145.5 470.5t395.5 175.5q268 0 416.5 -158t148.5 -533q0 -94 -10 -177t-45 -180t-91.5 -164.5t-157.5 -114t-234 -46.5q-584 0 -568 727z" />
<glyph unicode="1" horiz-adv-x="495" d="M-139 246q0 57 24 88q25 25 84 61l-4 228q-45 18 -76 55q-27 39 -26 106q0 84 26.5 192.5t65.5 143.5q84 76 309 76q94 0 150 -16q53 -16 105 -94t61 -136q-29 -485 -29 -569q61 -29 90 -90q16 -53 -21.5 -188.5t-87.5 -174.5q-66 -55 -262 -55q-193 0 -260 29 q-53 23 -101 140.5t-48 203.5z" />
<glyph unicode="2" horiz-adv-x="768" d="M-139 772q18 184 172.5 313t351.5 125q209 -4 353.5 -96t164.5 -303q6 -164 -65 -305q72 -43 77 -103q6 -47 -35.5 -241.5t-68.5 -239.5q-35 -29 -108.5 -48t-139.5 -19q-119 0 -184 49q-92 -8 -168 -35q-70 -16 -156 44t-139 160.5t-37 186.5q10 55 44 98t100 95 q-156 88 -162 319z" />
<glyph unicode="3" horiz-adv-x="718" d="M-141 244q0 86 37.5 162.5t107.5 121.5l6 78q-111 96 -106 242q4 131 89 220t197.5 121t231.5 25q184 -8 301 -126.5t121 -292.5q0 -29 -15.5 -80t-29.5 -88l-17 -37q92 -100 95 -279q2 -238 -136.5 -345t-361.5 -109q-147 -2 -259 32.5t-186.5 125t-74.5 229.5z" />
<glyph unicode="4" horiz-adv-x="768" d="M-158 608q57 113 170 302.5t166 230.5q49 45 119 37q45 41 125 47q80 4 224.5 -40t156.5 -106q4 -43 18 -385q43 -20 66.5 -74.5t23.5 -123.5q0 -78 -23.5 -159t-66.5 -126q-2 -63 -28.5 -159.5t-57.5 -127.5q-29 -29 -114.5 -46t-180.5 -17q-188 0 -245 39 q-25 16 -59 105t-48 171q-57 0 -80 12h2q-39 14 -113.5 185.5t-54.5 234.5z" />
<glyph unicode="5" horiz-adv-x="741" d="M-135 229q-10 84 17.5 173.5t82.5 148.5q-80 129 -76 215q4 127 93.5 273.5t173.5 134.5q100 -14 184 -15q35 39 72 51.5t96 12.5q104 0 225 -48.5t131 -105.5q10 -53 -11.5 -188.5t-53.5 -188.5q-2 -4 -9.5 -13t-11.5 -13q59 -57 89 -163t20 -220 q-18 -207 -143.5 -316.5t-319.5 -122.5q-211 -14 -375 91.5t-184 293.5z" />
<glyph unicode="6" horiz-adv-x="759" d="M-135 545q23 305 167 489.5t408 184.5q123 0 224.5 -50.5t150.5 -150.5q51 -111 51 -164q0 -84 -47 -160q49 -49 72.5 -152.5t9.5 -219.5q-20 -203 -155.5 -335t-354.5 -132q-254 0 -401.5 199.5t-124.5 490.5z" />
<glyph unicode="7" horiz-adv-x="712" d="M-166 567q-14 53 14.5 272.5t55.5 276.5q41 90 225 90q123 0 188 -16q31 -6 54 -23q33 2 88 12l96 16q41 7 93 5t95 -18q61 -29 97.5 -154t36.5 -237q0 -104 -48 -152q-27 -27 -63 -45q-6 -14 -27.5 -68.5l-39 -102.5t-23.5 -77q35 -29 55 -65q25 -51 -19 -202t-112 -181 q-72 -33 -254 -33q-104 0 -193.5 20.5t-117.5 59.5q-31 51 -53.5 135t-22.5 145q0 51 18 76q23 33 80 76l23 61q-88 8 -160 40t-86 89z" />
<glyph unicode="8" horiz-adv-x="792" d="M-115 170q-72 207 60 424q-53 84 -54 201q0 195 157 306t366 113q229 0 375.5 -106.5t146.5 -331.5q0 -125 -59 -229q80 -119 73 -254q-6 -213 -157.5 -324.5t-378.5 -113.5q-431 -7 -529 315z" />
<glyph unicode="9" horiz-adv-x="759" d="M-135 739q27 205 156 340t344 140q244 6 395 -194t147 -480q-6 -250 -110.5 -422t-251.5 -232q-141 -66 -324.5 -25.5t-259.5 177.5q-43 84 -43 180q0 72 39 146q-43 41 -73.5 158.5t-18.5 211.5z" />
<glyph unicode=":" horiz-adv-x="292" d="M-188 242q2 111 75 184q-76 98 -69 236q4 139 117.5 212.5t265.5 65.5q123 -6 214 -92t91 -211q0 -137 -78 -227q72 -78 72 -191q0 -156 -88 -246t-256 -86q-180 4 -265 100.5t-79 254.5z" />
<glyph unicode=";" horiz-adv-x="305" d="M-182 662q2 143 116.5 216.5t266.5 61.5q119 0 212 -89t93 -214q0 -180 -127 -272l2 -3q76 -80 76 -210q0 -109 -56 -207q-70 -109 -174 -167.5t-174 -60.5q-43 -4 -113.5 89.5t-41.5 127.5l65 80q-20 16 -29 27q-63 66 -63 168q0 88 63 166q-122 94 -116 287z" />
<glyph unicode="&#x3c;" horiz-adv-x="978" d="M-10 502q0 186 45 264q29 43 391 178t451 123q156 -23 155 -295q0 -145 -49 -254q47 -94 47 -231q0 -109 -27.5 -200t-84.5 -122q-61 -29 -341 57.5t-452 153.5q-68 27 -101.5 119t-33.5 207z" />
<glyph unicode="=" d="M-33 772q0 174 78 227q66 51 320 52q233 0 323 -27q63 -18 98 -89t35 -163q0 -125 -45 -219q51 -78 51 -191q0 -92 -28.5 -179t-75.5 -115q-70 -45 -354 -45q-186 0 -263 26q-59 29 -97 123t-38 188q0 119 39 189q-43 98 -43 223z" />
<glyph unicode="&#x3e;" horiz-adv-x="978" d="M-14 733q0 131 42 228.5t124 105.5q92 8 448 -122t391 -179q45 -61 45 -264q0 -113 -33.5 -205t-101.5 -121q-690 -260 -792 -211q-57 31 -86 121t-29 201q0 123 41 209q-49 87 -49 237z" />
<glyph unicode="?" horiz-adv-x="618" d="M-195 834q14 174 150.5 284.5t363.5 108.5q100 -2 186.5 -25.5t159 -74t113.5 -138.5t35 -207q-2 -61 -29.5 -131.5t-48 -106.5t-67.5 -110q-51 -129 -74 -131q57 -63 57 -158q0 -139 -75.5 -215.5t-251.5 -74.5q-176 0 -259 90t-73 237q6 72 55 129q-12 25 -12 41 q-8 61 22 142q-117 27 -188.5 117t-63.5 223z" />
<glyph unicode="@" horiz-adv-x="1513" d="M-158 422q0 209 59.5 391t178.5 291q137 125 344 183.5t434 58.5q193 0 364 -42t246 -108q121 -111 183.5 -296t62.5 -386q0 -172 -41 -327.5t-108 -243.5q-66 -82 -189 -126t-241 -44q-53 0 -86 8q-14 -127 -86 -178q-127 -94 -351 -95q-215 0 -413 97 q-162 88 -259.5 321.5t-97.5 495.5z" />
<glyph unicode="A" horiz-adv-x="919" d="M-143 238q0 66 29.5 108.5t82.5 50.5q41 186 49 283q-47 45 -47 125q0 78 41 198.5t70 149.5q55 55 350 55q279 0 365 -32q41 -18 106 -201q52 -146 53 -204q0 -14 -4 -23q-16 -33 -47 -64q10 -70 35 -181.5t35 -135.5q92 -20 92 -148q0 -121 -55 -246 q-31 -57 -122 -87.5t-198 -30.5q-172 0 -248 49q-74 -43 -200 -43q-186 0 -262 53q-45 35 -85 142.5t-40 181.5z" />
<glyph unicode="B" horiz-adv-x="833" d="M-145 221q0 92 45 133q31 25 43 31q0 10 -2 116.5t-4 147.5q-76 45 -76 158q0 96 49 233.5t108 167.5q33 25 123 25q78 0 207 -37q16 -4 49 -8l35 4q82 10 127 10q72 0 103 -6q145 -23 216.5 -125t71.5 -237q0 -80 -18 -142l-58 -98q57 -57 87 -129q31 -82 30 -184 q0 -315 -233 -398q-94 -33 -183 -33q-59 0 -124.5 17.5t-71.5 17.5q-10 2 -25 2q-43 0 -123 -18q-70 -16 -110 -16q-68 0 -111 16q-55 23 -105 144.5t-50 207.5z" />
<glyph unicode="C" horiz-adv-x="759" d="M-150 514q0 127 17.5 234.5t60.5 214t131 174t213 77.5q19 2 37 2q54 0 99 -14q94 45 210 45q182 0 232 -102q39 -86 39 -402q0 -92 -19 -131q12 -39 13 -184q0 -164 -37 -283q-47 -145 -173 -220t-274 -75q-145 0 -254.5 52.5t-172 146.5t-92.5 210t-30 255z" />
<glyph unicode="D" horiz-adv-x="817" d="M-152 834q0 88 32 193.5t85 143.5q47 37 125 37q49 0 135 -14q48 -9 108 -9q20 0 42 1l151 8q14 1 27 1q217 0 327 -158q108 -156 108 -462q0 -22 -1 -45q-2 -117 -30.5 -231.5t-82 -214.5t-146.5 -158q-79 -49 -175 -48q-17 0 -35 1q-123 12 -141 12q-45 0 -121 -14 q-82 -16 -147 -16q-43 0 -84 12q-63 23 -113 208q-35 131 -35 189q0 24 6 35q33 45 82 70l-4 268q-16 2 -33 12q-80 40 -80 179z" />
<glyph unicode="E" horiz-adv-x="804" d="M-133 317q27 59 98 91l-6 231q-33 18 -53 39q-33 33 -33 100q0 82 36 207t68 160q45 45 142 45q23 0 81 -3t74 -3q92 -7 126 -7q9 0 14 1q33 33 75 45q51 12 97 12q76 0 163 -29.5t109 -52.5q37 -39 64.5 -162t27.5 -219t-37 -145q-27 -35 -110 -60q2 -19 2 -38.5 t-2 -39.5q86 -27 117 -67q33 -47 32 -125q0 -94 -39 -232.5t-79 -173.5v3q-49 -49 -250 -50q-109 0 -150 9q-41 6 -78 36q-45 -4 -153 -18q-62 -9 -105 -9q-32 0 -53 5q-68 20 -131 210q-50 151 -50 214q0 15 3 26z" />
<glyph unicode="F" horiz-adv-x="774" d="M-133 795q0 86 38 212t81 150q47 27 135 27q43 0 137 -4q51 -2 133 -2q66 41 117 51q25 4 55 4q76 0 160 -26.5t111 -53.5q29 -35 47 -134t18 -198q0 -115 -29 -176q-23 -43 -79 -63q6 -31 6 -64q0 -141 -74 -203q-35 -25 -74 -30q10 -37 10 -74q0 -80 -31.5 -179.5 t-70.5 -127.5q-33 -18 -142.5 -31.5t-207.5 -13.5q-139 0 -187 26h3q-63 39 -102 185q-29 110 -28 167q0 19 3 31q23 53 71 97v276q-39 16 -63 43q-37 37 -37 111z" />
<glyph unicode="G" horiz-adv-x="772" d="M-170 561q0 115 21.5 224.5t67.5 209t128 162t191 64.5h12q74 0 133 -23q57 29 158 29q106 0 196 -38t107 -112q16 -80 24 -195q3 -46 4 -86q0 -58 -8 -100q35 -33 56 -86q12 -80 12 -139q0 -84 -25 -135q-27 -41 -37 -49q0 -172 4 -228q0 -39 -73.5 -84t-154.5 -68 q-50 -15 -77 -15q-16 0 -24 6q-14 10 -29 18q-86 -55 -199 -55q-133 0 -229 61q-127 82 -192.5 268.5t-65.5 370.5z" />
<glyph unicode="H" horiz-adv-x="940" d="M-135 260q0 59 24 96q25 33 72 60v100q0 109 -2 143q-49 29 -74 70q-10 15 -9 50q0 55 24 159q39 170 86 213q63 51 258 51q141 0 237 -37q61 31 187 31q96 0 199.5 -22.5t131.5 -51.5q31 -31 58.5 -144.5t27.5 -189.5q0 -82 -36 -118q-33 -31 -66 -43q-6 -61 -6 -232 q33 -16 55 -39q25 -31 25 -86q0 -80 -35 -201.5t-70 -152.5q-78 -51 -254 -51q-156 0 -233 49q-88 -41 -221 -41q-174 0 -250 43q-53 31 -91 144.5t-38 199.5z" />
<glyph unicode="I" horiz-adv-x="544" d="M-139 207q0 82 41 127q29 29 57 41v291l-34 32q-24 23 -34 31q-7 13 -7 41q0 59 32 182q47 182 100 213q59 33 238 33q287 0 348 -76q31 -33 57.5 -133t26.5 -174q0 -88 -35 -133q-25 -29 -55 -47q-4 -86 -4 -262q37 -20 65 -70q23 -39 23 -104q0 -68 -34 -161t-64 -120 q-63 -57 -281 -57q-219 0 -297 33q-61 29 -102 130t-41 183z" />
<glyph unicode="J" horiz-adv-x="743" d="M-225 317q0 127 68.5 225.5t179.5 133.5q-70 49 -70 143q0 72 33.5 174.5t68.5 139.5q63 63 334 63q98 0 208 -13.5t146 -23.5q66 -27 110 -164q33 -104 33 -171q0 -22 -3 -40q-16 -78 -99 -125q31 -141 31 -249q0 -201 -92 -347q-66 -100 -187.5 -158.5t-250.5 -58.5 q-121 0 -229.5 48.5t-182.5 142.5q-98 128 -98 280z" />
<glyph unicode="K" horiz-adv-x="911" d="M-154 303q18 43 97 98q6 68 6 226q0 45 4 53q-31 16 -74 65q-9 21 -9 66q0 53 13 140q25 159 68 204q45 49 231 49q96 0 191.5 -18.5t128.5 -46.5q96 63 270 63q147 0 203 -61q29 -35 55.5 -146.5t26.5 -181.5q0 -59 -23 -104q-29 -55 -147 -99q-39 -53 -43 -84 q-4 -18 5 -55t23.5 -65.5t28.5 -24.5q19 3 37 3q70 0 120 -51q62 -65 62 -177q0 -68 -31.5 -142.5t-89.5 -126.5q-90 -70 -221 -69q-156 0 -262 92q-25 25 -33 35q-16 -20 -18 -23q-57 -57 -240 -57q-199 0 -274 53q-43 43 -81 195q-27 110 -28 160q0 19 4 30z" />
<glyph unicode="L" horiz-adv-x="772" d="M-129 256q0 66 27 92q23 20 65 49q4 95 4 162.5t-4 106.5q-2 2 -9 5t-21.5 17t-38.5 45q-13 17 -14 58q0 58 28 165q47 182 112 215q68 33 291 33q109 0 200 -20.5t118 -59.5q31 -47 50 -134t19 -156q0 -76 -20 -123q-12 -25 -43 -60q109 0 164 -14q119 -25 129 -135v-16 q0 -65 -26 -262q-30 -224 -50 -269v2q-37 -94 -234 -94q-147 0 -190 16q-10 4 -47 31q-111 -12 -156 -21q-94 -20 -141 -20q-51 0 -80 18q-55 35 -94 157t-39 212z" />
<glyph unicode="M" horiz-adv-x="1179" d="M-145 299q20 47 84 92q27 186 45 332q-58 63 -58 105q0 45 49 185q55 155 84 171q80 33 222 33q197 0 319 -64q100 55 315 55q219 0 271 -65q27 -31 50 -150q22 -109 22 -152q0 -69 -72 -128q18 -266 28 -307q111 -49 136 -146q1 -6 1 -15q0 -43 -31 -156 q-38 -136 -63 -169q-49 -66 -221 -65q-78 0 -169 21.5t-144 53.5q-53 -20 -121 -20q-66 0 -123 18q-23 -31 -135.5 -46t-181.5 -15q-162 0 -221 53q-37 35 -70 186q-22 101 -22 153q1 26 6 40z" />
<glyph unicode="N" horiz-adv-x="915" d="M-139 797q0 82 23.5 198.5t54.5 147.5q61 59 264 59q160 0 215 -63l10 -15l18 27q51 53 213 53q84 0 182.5 -19.5t119.5 -37.5q23 -23 55.5 -149t32.5 -189q-45 -94 -109 -186q-1 -5 -1 -13q0 -79 95 -469q-2 -45 -94 -113.5t-194 -113.5q-80 -35 -114 -35q-9 0 -16 2 q-49 29 -94 90q-14 -31 -33 -49q-51 -55 -196 -55q-82 0 -171 12t-116 31q-37 27 -89 177q-44 126 -44 177q0 10 2 17q20 49 72 92q4 90 4 190v105l-66 43q-24 20 -24 86z" />
<glyph unicode="O" horiz-adv-x="796" d="M-162 575q8 295 145.5 470.5t395.5 175.5q268 0 416.5 -158t148.5 -533q0 -94 -10 -177t-45 -180t-91.5 -164.5t-157.5 -114t-234 -46.5q-568 0 -568 688v39z" />
<glyph unicode="P" horiz-adv-x="813" d="M-154 791q0 92 39 221t80 159q49 37 127 37q59 0 146 -16l69 -16q92 25 201 24q168 0 276 -63q180 -119 193 -359q1 -21 1 -42q0 -180 -80 -312q-89 -147 -247 -211q-4 -80 -41 -174t-84 -125q-80 -43 -309 -43q-145 0 -211 33q-47 29 -91 113.5t-50 152.5q-2 17 -2 32 q0 72 47 120q8 8 45 38q0 193 4 250q-51 20 -80 58q-33 47 -33 123z" />
<glyph unicode="Q" horiz-adv-x="798" d="M-158 571q-2 295 130 471.5t395 184.5h29q113 0 202 -28q100 -32 182 -105.5t128 -209.5t53 -329q1 -30 0 -57q0 -68 -4 -118q-5 -71 -36.5 -167t-93.5 -166q4 -2 11 -8l10 -10q61 -68 61 -183q0 -121 -67 -196q-45 -50 -100 -50q-28 0 -60 13q-27 8 -78 8 q-123 0 -225 -37q-10 -3 -21 -3q-41 0 -97 48q-71 61 -117 147q-35 65 -35 105q0 13 4 23l8 18q-279 155 -279 649z" />
<glyph unicode="R" horiz-adv-x="882" d="M-119 315q25 39 82 76q-8 25 -8 230q-41 31 -57 49q-8 16 -8 53q0 74 30 231q45 236 111 260q39 16 92 17q51 0 219 -27l51 -8q92 29 189 29q145 0 264 -76q76 -49 114.5 -142.5t38.5 -197.5q0 -152 -61 -256q-47 -76 -92 -115q18 -31 37 -30q7 1 13 0q69 0 115 -60 q50 -66 50 -166q0 -182 -121 -278q-80 -68 -205 -68q-160 0 -258 105q-66 -72 -270 -72q-160 0 -217 31q-37 25 -82 201q-32 126 -32 181q0 22 5 33z" />
<glyph unicode="S" horiz-adv-x="790" d="M-123 788v12q0 112 39 195q41 88 107.5 133.5t141.5 64.5q57 15 113 15q18 0 35 -2q43 -6 82 -16q66 49 230 49q143 0 194 -78q25 -43 69 -262q34 -171 34 -231q0 -17 -2 -25q-23 -35 -99 -74q98 -143 98 -290q0 -50 -12 -101q-70 -315 -375 -315q-111 0 -180 35 q-100 -35 -194 -35q-115 0 -183 67q-31 55 -71 244q-29 135 -30 197q0 25 5 39q25 51 86 90q-86 130 -88 288z" />
<glyph unicode="T" horiz-adv-x="901" d="M-158 926q0 133 54 186q33 29 186 68q108 27 164 27q24 0 39 -5q39 -14 59 -37q39 0 100.5 3t81.5 3q33 37 97 52q31 6 73 6q92 0 200 -43t126 -70q39 -57 39 -198q0 -106 -13.5 -247t-25.5 -175q-33 -80 -145 -80q-51 0 -93 8q0 -35 -4 -64q4 -10 27 -22q51 -31 51 -121 q0 -78 -28.5 -179t-73.5 -134q-82 -41 -326 -41q-203 0 -260 39q-43 29 -79 180q-25 104 -24 153q0 22 5 33q16 43 86 99q0 2 -1 10t-1 12q-43 -12 -84 -12q-117 0 -162 82q-18 33 -43 193.5t-25 273.5z" />
<glyph unicode="U" horiz-adv-x="882" d="M-133 768q-5 17 -5 44q0 55 22 154q34 146 85 205q41 51 201 52q147 0 250 -45q68 49 190 49q90 0 193.5 -19.5t128.5 -40.5q43 -35 71.5 -139t28.5 -182q0 -76 -28 -117q-29 -31 -56 -49q12 -96 23 -262q-4 -240 -94 -381q-125 -200 -399 -200q-18 0 -38 1 q-131 4 -246.5 57.5t-177.5 145.5q-96 154 -104 369q-1 25 -1 51q0 112 21 235q-8 12 -32.5 30.5t-32.5 41.5z" />
<glyph unicode="V" horiz-adv-x="925" d="M-147 821q0 80 22.5 174.5t58.5 132.5q33 33 118 56.5t173 23.5q121 0 197 -30q29 -12 51 -29q20 12 59 22q66 18 138 19q88 0 176 -17.5t125 -44.5q45 -35 74.5 -150.5t29.5 -211.5q0 -57 -23.5 -99t-99.5 -94q-41 -104 -73 -262q14 -16 22 -55q2 -7 2 -16 q0 -42 -36 -145q-44 -126 -83 -165q-35 -29 -138 -46t-218 -17q-178 0 -250 24q-49 23 -108.5 159t-59.5 188q0 41 33 88q-29 172 -70 309q-8 -2 -10 -2t-26 10q-84 47 -84 178z" />
<glyph unicode="W" horiz-adv-x="1259" d="M-145 887q0 152 57 225q61 82 246 82q78 0 170 -20.5t143 -49.5q68 29 147 29q115 0 197 -31q90 59 240 60q90 0 176 -20.5t115 -51.5q23 -29 47 -114t24 -158q0 -76 -28 -144q-31 -63 -107 -82q-49 -170 -76 -325q35 -52 36 -88q0 -36 -29 -123q-32 -98 -52 -129 q-29 -39 -118 -62.5t-187 -23.5q-160 0 -242 51q-92 -45 -254 -45q-156 0 -223 31q-35 16 -92 154q-47 114 -47 172q0 12 2 22q6 18 33 65q-33 215 -74 365q-49 18 -76.5 77.5t-27.5 133.5z" />
<glyph unicode="X" horiz-adv-x="956" d="M-109 352q57 53 125 70q43 53 43 84q0 61 -36 121q-63 27 -101 65q-25 25 -24 88q0 94 35.5 221t82.5 158q61 39 238 39q137 0 223 -41q74 53 215 53q96 0 198.5 -25.5t125.5 -54.5h-2q25 -29 50.5 -153.5t25.5 -202.5q0 -59 -21 -84q-31 -41 -67.5 -55t-100.5 -27 q-18 -45 -18 -98q0 -33 41 -94q4 -10 38.5 -22.5t38.5 -14.5q61 -37 62 -139q0 -72 -35 -182.5t-59 -137.5q-29 -20 -119 -38.5t-170 -18.5q-154 0 -223 53q-84 -43 -232 -43q-168 0 -233 33q-41 23 -82 211q-26 122 -27 184q0 34 8 51z" />
<glyph unicode="Y" horiz-adv-x="845" d="M-174 803q0 82 42 210t81 152q45 31 215 31q193 0 258 -31q92 37 250 37q147 0 205 -35q47 -33 78.5 -152.5t31.5 -211.5q0 -84 -35 -125v2q-23 -29 -112 -66q-27 -29 -72 -104.5t-51 -106.5v-69l22 -10q61 -41 62 -136q0 -63 -23.5 -142t-56.5 -112q-29 -29 -131.5 -45 t-218.5 -16q-231 0 -285 53q-33 33 -57 167q-15 80 -15 126q0 30 6 45q29 41 80 72q0 35 -2 47q-10 23 -70.5 123t-78.5 125q-10 10 -39 16q-84 21 -84 156z" />
<glyph unicode="Z" horiz-adv-x="811" d="M-172 176q12 29 111 178l18 27q4 6 20 33q-80 39 -100 106q-23 82 -22 389q0 193 39 258q53 80 268 80q176 0 256 -76l170 25q125 20 171 20q12 0 19 -2q59 -10 133 -149q56 -107 57 -168q0 -19 -5 -33l-164 -274q109 -33 127 -131q12 -221 12 -312q0 -141 -27 -204 q-29 -49 -126 -75t-207 -26q-139 0 -189 15q-41 14 -63 34q-229 -33 -281 -32q-49 0 -78 14q-47 27 -104 135q-41 78 -41 131q0 20 6 37z" />
<glyph unicode="[" horiz-adv-x="581" d="M-113 463q0 244 13.5 454.5t33.5 251.5v-2q35 70 152 104t256 34q78 0 152.5 -12.5t99.5 -26.5q72 -59 72 -183q0 -111 -48 -172q-31 -35 -92 -47q6 -68 6 -432q0 -231 3 -303q78 -16 100 -49q33 -53 33 -152q0 -53 -20.5 -105t-55.5 -77q-23 -16 -120 -28.5t-198 -12.5 q-252 0 -317 76h2q-72 78 -72 682z" />
<glyph unicode="\" horiz-adv-x="339" d="M-260 1036q18 66 79.5 99.5t145.5 33.5q145 0 215 -69q33 -33 120 -299t149.5 -539.5t31.5 -314.5q-70 -86 -217 -86q-139 0 -203 67q-39 41 -185 551t-136 557z" />
<glyph unicode="]" horiz-adv-x="581" d="M-109 -72q0 74 36 132.5t100 70.5q0 27 1 130.5t1 170.5q0 322 -6 432q-57 12 -93 78t-36 141q0 139 108 199q80 23 217 23q143 0 263 -33t153 -107q45 -102 45 -702q0 -604 -72 -682q-68 -76 -317 -76q-102 0 -200.5 13.5t-125.5 29.5q-33 29 -53.5 80t-20.5 100z" />
<glyph unicode="^" horiz-adv-x="821" d="M-150 279q-31 59 54.5 336.5t154.5 451.5q27 68 120 102.5t206 34.5q205 0 266 -45q55 -39 184.5 -394t114.5 -448q-18 -156 -313 -155q-133 0 -244 37q-82 -35 -211 -35q-117 0 -210 28t-122 87z" />
<glyph unicode="_" horiz-adv-x="1024" d="M-147 -111q0 51 35.5 87t86.5 36h1067q51 0 87 -35.5t36 -87.5v-194q0 -51 -35.5 -87t-87.5 -36h-1067q-51 0 -86.5 36t-35.5 87v194z" />
<glyph unicode="`" horiz-adv-x="479" d="M-96 864q0 68 31.5 156t72.5 121q55 41 293 -48t262 -130q27 -49 9.5 -135.5t-58.5 -135.5q-29 -33 -78 -39t-112 4q-47 4 -161 11.5t-136 11.5q-123 30 -123 184z" />
<glyph unicode="a" horiz-adv-x="735" d="M-143 221q0 78 26 139q20 53 74 101q-55 74 -55 182q0 180 166 279q120 72 274 72q12 0 25 -1q457 -20 460 -399q1 -18 1 -35q0 -104 -21 -192q45 -29 57 -64q5 -14 6 -37q0 -57 -32 -169q-45 -157 -90 -199q-70 -43 -224 -43q-137 0 -188 30q-41 -18 -127 -24 q-10 0 -19 -1q-163 0 -262 136q-71 100 -71 225z" />
<glyph unicode="b" horiz-adv-x="778" d="M-170 874q0 72 28.5 176.5t63.5 145.5q51 66 205 66q82 0 169 -15.5t122 -40.5q78 -53 78 -256q30 4 57 4q135 0 225 -98q139 -152 140 -434q0 -225 -109 -385q-104 -160 -287 -182q-14 -2 -30 -2q-41 0 -96 11q-77 15 -142 50q-18 -33 -104 -33q-72 0 -155 32t-104 73 v-2q-14 33 -14 114q2 106 11.5 353t9.5 284q-68 69 -68 139z" />
<glyph unicode="c" horiz-adv-x="702" d="M-156 451q4 231 126 385.5t317 154.5q39 0 100 -12q47 39 174 39q86 0 160 -28.5t98 -90.5q27 -94 27 -260q0 -98 -4 -129q-4 -33 -21 -68q12 -31 19 -71q1 -16 0 -33q0 -41 -3 -82q-5 -57 -33 -131t-75 -130t-136 -97t-208 -45q-6 0 -13 -1q-247 0 -386 154 q-144 158 -142 445z" />
<glyph unicode="d" horiz-adv-x="851" d="M-152 299q-4 55 -4 106q0 249 109 392q84 115 231 145q25 4 55 4t66 -4v92q0 104 39 160q33 45 116 68.5t179 23.5q160 0 227 -47q39 -31 69 -154.5t34 -210.5q2 -7 2 -14q0 -39 -53 -96q-8 -10 -13 -19q-10 -35 -10 -253q37 -20 63 -52q35 -45 35 -127q0 -88 -32.5 -212 t-73.5 -167q-29 -27 -122 -44t-187 -17q-115 0 -193 31q-65 -38 -151 -38q-12 0 -25 1q-145 4 -244 127q-94 110 -117 305z" />
<glyph unicode="e" horiz-adv-x="704" d="M-13 839q130 161 384 160q233 -2 345.5 -131t112.5 -290q0 -72 -28 -140q68 -74 67 -198q0 -100 -53 -172q-152 -205 -467 -205h-6q-219 2 -354 149q-133 145 -133 408q0 256 132 419z" />
<glyph unicode="f" horiz-adv-x="573" d="M-168 590q0 59 20.5 116.5t53.5 84.5q14 10 47 24q-3 24 -3 48q0 121 70 222q55 84 153.5 131.5t199.5 47.5q164 0 272 -99q119 -117 119 -282q0 -125 -74 -211q14 -43 15 -99q0 -72 -27 -150.5t-62 -109.5q-16 -12 -22 -16q37 -23 37 -109q0 -72 -33 -164t-76 -120 q-53 -35 -260 -35q-199 0 -262 37q-55 31 -89 177q-23 99 -23 149q0 25 6 38q4 10 16 26.5t14 20.5q-37 29 -64.5 113t-27.5 160z" />
<glyph unicode="g" horiz-adv-x="747" d="M-147 563q18 184 137 305t336 131q37 74 83 123t128 78q70 25 143 25q113 0 186.5 -59.5t83.5 -151.5v-12q0 -168 -114 -228q61 -100 63 -248v-13q0 -189 -111 -312q92 -80 93 -238q0 -88 -39 -176t-105 -147q-166 -147 -422 -148q-219 0 -338 92q-104 78 -104 197 q0 49 18 86q-31 57 -30 156q0 129 73 213q-84 118 -84 274q1 26 3 53z" />
<glyph unicode="h" horiz-adv-x="894" d="M-121 866q0 86 33 192.5t82 149.5q68 49 182 49q106 0 217 -40.5t137 -96.5q20 -49 21 -102q0 -31 -2 -49q53 14 94 14q121 0 210 -78t110 -229q4 -32 4 -73q0 -81 -17 -195v-2q39 -25 64 -76q6 -16 6 -49q0 -51 -15 -144q-26 -152 -65 -198q-29 -35 -106.5 -55.5 t-165.5 -20.5q-115 0 -203 37l-19 10q-111 -41 -245 -41q-158 0 -228 53q-45 35 -78 211q-20 106 -21 162q0 38 9 53q31 55 84 82v60v85q0 55 -1 88t-1 31q-47 29 -59 54q-27 48 -27 118z" />
<glyph unicode="i" horiz-adv-x="495" d="M-156 211q0 78 43 127q37 37 68 53q0 25 -2 31q-43 16 -70 57q-25 37 -24 103q0 119 51 225q-43 63 -49 160q-1 14 -1 26q0 69 27 122q33 62 95.5 92t129 43.5t144.5 13.5q139 0 232.5 -58.5t99.5 -193.5q2 -106 -56 -185q25 -37 25 -127q0 -76 -6 -155v2 q-10 -88 -10 -146q78 -47 98 -110q4 -13 4 -33q0 -53 -29 -150q-39 -134 -75 -169q-35 -31 -126 -49.5t-192 -18.5q-203 0 -266 57q-47 41 -79 128t-32 155z" />
<glyph unicode="j" horiz-adv-x="487" d="M-356 23q0 147 94 253.5t237 118.5q0 4 -1 13.5t-1 11.5q-80 33 -98 123q-8 41 -8 82q0 101 49 209q-31 49 -41 157q-1 16 -1 31q0 55 17 98q23 55 63 88t97.5 52.5t112.5 26.5t119 7q344 0 344 -270q0 -115 -56 -190q43 -109 43 -510q0 -109 -4 -181.5t-22.5 -170 t-51 -162t-97 -122t-154.5 -85.5q-84 -21 -164 -21q-71 0 -138 17q-142 35 -240.5 151.5t-98.5 272.5z" />
<glyph unicode="k" horiz-adv-x="800" d="M-158 188q0 111 95 170l-5 322l-12 6q-12 6 -20.5 12.5t-18.5 19.5t-15 34.5t-5 52.5q0 82 36.5 201.5t82.5 146.5q47 29 156 34q18 1 37 1q91 0 179 -22q106 -26 131 -79q18 -43 19 -131q94 25 184 25q141 0 193 -47q49 -47 66 -182q6 -49 6 -89q0 -70 -19 -112 q-16 -39 -71.5 -65.5t-104.5 -26.5q2 -20 24.5 -65.5t40.5 -51.5h10q65 0 108 -50q46 -54 46 -145q0 -68 -28.5 -141.5t-79.5 -118.5q-86 -74 -209 -73q-152 0 -242 96q-25 -18 -107.5 -31.5t-162.5 -13.5q-145 0 -197 31q-41 25 -79 122.5t-38 169.5z" />
<glyph unicode="l" horiz-adv-x="487" d="M-141 225q0 86 98 142q2 55 2 187t-2 132q-43 18 -63 49q-11 19 -12 62q0 53 17 142q30 163 72 206q25 23 96.5 39t149.5 16q113 0 210 -33.5t124 -93.5q18 -39 18 -125q0 -80 -12 -292t-12 -296q78 -39 92 -86q6 -21 6 -49q0 -58 -26 -145q-38 -129 -89 -172 q-63 -53 -260 -53q-195 0 -258 26q-51 23 -101 142.5t-50 201.5z" />
<glyph unicode="m" horiz-adv-x="1333" d="M-131 217q0 92 53 139q29 27 51 37q4 10 4 37q-92 33 -104 197q-1 13 -1 27q0 72 28 153q33 96 90 129q76 39 219 39q174 0 262 -66q84 47 174 47q135 0 215 -86q115 86 234 86q121 0 217 -85t114 -228q4 -28 4 -60q0 -81 -22 -190q43 -27 59 -69q6 -14 7 -68 q0 -84 -31 -195.5t-76 -148.5q-72 -59 -281 -59q-125 0 -200 34q-76 -39 -189 -39q-143 0 -239 54q-76 -35 -207 -35q-211 0 -285 61q-39 31 -67.5 124t-28.5 165z" />
<glyph unicode="n" horiz-adv-x="851" d="M-152 231q0 72 43 117q43 37 56 41l6 35q-51 33 -78 78q-20 45 -20 104q0 86 38.5 195.5t92.5 144.5q55 37 192 37q76 0 157 -18.5t118 -49.5q82 45 168 48h6q125 0 218 -78q95 -80 111 -236q3 -25 3 -49q0 -34 -5 -69q-8 -60 -24.5 -113t-16.5 -56q33 -20 60 -69 q11 -25 11 -65q0 -50 -17 -124q-31 -133 -74 -176q-72 -68 -250 -67q-137 0 -225 47q-92 -49 -236 -49q-166 0 -229 57q-35 31 -70 136t-35 179z" />
<glyph unicode="o" horiz-adv-x="780" d="M-152 446q12 238 148.5 386.5t382.5 148.5q258 0 403.5 -132t145.5 -443q0 -78 -10.5 -148t-44 -150.5t-88 -137t-152.5 -94.5t-230 -38q-158 0 -271.5 53.5t-172.5 144.5t-85 191t-26 219z" />
<glyph unicode="p" horiz-adv-x="802" d="M-170 569q0 82 40 197t91 160q35 29 119 48t166 19q127 0 198 -41q68 29 156 29q121 -2 206 -89t117.5 -194.5t32.5 -220.5q0 -182 -86 -324.5t-200 -191.5q-43 -18 -95 -29q0 -84 -23.5 -169t-62.5 -117q-63 -55 -237 -56q-86 0 -167 16.5t-114 43.5q-37 31 -68.5 129 t-31.5 174q0 117 72 145q-6 248 -15 312q-16 2 -32 16q-66 45 -66 143z" />
<glyph unicode="q" horiz-adv-x="811" d="M-154 410q0 229 107 396q105 165 280 165h5q98 -2 168 -47q113 39 231 39q156 0 221 -70q35 -35 73 -175t38 -224q0 -82 -47 -136q-10 -10 -58 -34q-2 -10 -3 -62.5t-1 -115t-2 -87.5q61 -8 80 -63q7 -20 6 -53q0 -60 -21 -161q-34 -157 -79 -192q-63 -51 -238 -51 q-201 0 -274 45q-47 31 -86 125t-41 170q-174 43 -266.5 184.5t-92.5 346.5z" />
<glyph unicode="r" horiz-adv-x="684" d="M-139 625q0 74 20.5 166t55.5 133q29 33 108.5 52t171.5 19q176 0 264 -51q43 29 107 37q13 1 25 1q112 0 197 -84q95 -93 95 -255q0 -70 -24 -154q-66 -211 -232 -284q0 -72 -21.5 -146.5t-49.5 -113.5q-31 -39 -115 -60.5t-180 -21.5q-178 0 -254 31q-59 25 -111 169 q-35 98 -35 155q0 27 8 44q25 57 68 82q0 16 3 48t3 48q-47 23 -67 52q-37 53 -37 133z" />
<glyph unicode="s" horiz-adv-x="673" d="M-158 238q0 141 84 221q-57 84 -59 174q-1 13 -1 25q0 146 89 238q96 99 256 99q72 0 131 -20q70 61 221 61q88 0 153.5 -34.5t80.5 -102.5q6 -23 6 -111q0 -223 -31 -274q-8 -20 -41 -45q69 -109 69 -223q0 -42 -9 -84q-37 -164 -168 -233q-120 -63 -272 -63 q-14 0 -27 1q-96 4 -177 24.5t-152 62.5t-112 115t-41 169z" />
<glyph unicode="t" horiz-adv-x="585" d="M-201 748q0 172 131 196q72 12 84 80q10 70 98.5 112t192.5 42q98 0 172 -38t74 -108v-57q80 -4 123 -35q35 -27 56.5 -88t21.5 -125q0 -158 -97 -254q104 -98 105 -246q0 -176 -122 -283.5t-294 -107.5q-109 0 -209 45t-164 135q-59 94 -59 236q0 45 8 123l8 78 q-8 4 -32 22q-31 20 -64 110.5t-33 162.5z" />
<glyph unicode="u" horiz-adv-x="864" d="M-135 557q0 78 22.5 179.5t57.5 152.5q27 41 97.5 57.5t127.5 16.5q139 0 236 -45q61 39 212 38q158 0 250 -55q31 -18 46.5 -40.5t27.5 -93.5q4 -25 4 -56q0 -56 -14 -131q-4 -39 -9 -74t-7.5 -47.5t-2.5 -16.5q94 -31 99 -133v-11q0 -57 -37 -186q-41 -142 -86 -190 q-55 -57 -221 -57q-80 0 -157 15.5t-99 35.5q-78 -55 -187 -55q-127 4 -224 88t-107 233q-1 13 -1 27q0 91 35 207l-18 12q-16 12 -25 23q-20 28 -20 106z" />
<glyph unicode="v" horiz-adv-x="800" d="M-152 594q0 80 24 169t62 126q63 61 226 61q152 0 231 -37q68 55 209 56q78 0 159 -14.5t111 -36.5q39 -31 62.5 -122t23.5 -178q0 -172 -96 -208l-127 -443q-33 -59 -122 -89t-195 -30q-201 0 -275 52q-16 12 -34.5 38.5t-33 54t-30.5 70.5l-28 75q-11 32 -25.5 80 t-20.5 70.5t-18 63.5t-12 45q-91 37 -91 197z" />
<glyph unicode="w" horiz-adv-x="1245" d="M-106 496q-14 13 -15 65q0 54 16 151q30 189 70 230q45 45 135 45q63 0 160.5 -20.5t161.5 -48.5q55 45 168 45q121 0 239 -58q68 61 232 62q115 0 176 -21q55 -20 102 -141t47 -221q0 -125 -81 -181l-25 -12q-2 -12 -6 -54t-6 -67q-23 -207 -49 -276 q-33 -76 -130.5 -116t-218.5 -40q-184 0 -288 78q-111 -70 -281 -70q-125 0 -228.5 43t-125.5 117q-25 84 -25 242q0 18 3 73.5t3 71.5q0 74 -6 78z" />
<glyph unicode="x" horiz-adv-x="870" d="M-111 594q0 78 38 196.5t73 143.5q61 45 231 45q100 0 181 -29q80 49 237 49q90 0 174 -18t111 -47q25 -25 52 -173q21 -115 21 -156q0 -12 -1 -17q-16 -55 -64.5 -91t-87.5 -48q-6 -16 -2 -50t12 -43l54 -20h-3q70 -33 70 -133q0 -66 -36 -164t-60 -117 q-27 -25 -102.5 -40t-155.5 -15q-143 0 -205 45q-92 -49 -233 -49q-147 0 -213 35q-47 27 -82 205q-18 92 -18 144q0 48 16 60q55 45 112 60q8 25 8 36q0 8 -1 16.5t-4 17.5t-3 14q-29 0 -55 16q-64 39 -64 127z" />
<glyph unicode="y" horiz-adv-x="845" d="M-150 594q0 96 20.5 185t57.5 126q68 63 279 64q104 0 180 -33q94 51 289 51q188 0 239 -69q33 -43 54.5 -143.5t21.5 -178.5q0 -92 -53 -150q-20 -14 -41 -22q-76 -471 -227 -684q-61 -86 -159.5 -135t-207.5 -49q-166 0 -282.5 106.5t-116.5 265.5q0 66 32.5 144 t88.5 131l-54 129q-29 6 -59 35q-25 23 -43.5 90t-18.5 137z" />
<glyph unicode="z" horiz-adv-x="729" d="M-145 156l104 149q-51 35 -63 70q-27 76 -27 319q0 166 41 236q31 33 107.5 53.5t150.5 20.5q139 0 207 -54l176 15q118 11 142 10h5q63 -16 132 -151q45 -87 45 -140q0 -28 -13 -47q-53 -66 -108 -150q90 -31 102 -112q2 -13 2 -35q0 -62 -13 -192q-17 -175 -38 -216 q-49 -96 -281 -96q-141 0 -192 25q-8 4 -33 24q-156 -25 -216 -28q-15 -1 -29 -1q-43 0 -79 9q-43 18 -95 124q-36 72 -35 123q0 24 8 44z" />
<glyph unicode="{" horiz-adv-x="587" d="M-195 502q0 68 31 121t86 71v76q4 334 51 414q35 53 167 80.5t276 27.5q141 0 190 -26q31 -14 63.5 -64.5t32.5 -103.5q0 -80 -30 -144q-29 -61 -82 -69v-107q0 -205 -12 -243l-15 -15q8 -10 19 -37q18 -80 18 -266q0 -18 1 -49t1 -43q51 -16 84 -64.5t33 -111.5 q0 -158 -111 -213q-66 -37 -271.5 -33t-270.5 53q-39 31 -60.5 101.5t-26 125t-6.5 156.5q0 45 -4 111q-74 8 -119 87t-45 165z" />
<glyph unicode="|" horiz-adv-x="342" d="M-121 418q0 664 25 731q57 117 266 117q98 0 185 -28t91 -79q8 -94 8.5 -289.5t-2.5 -428t-3 -320.5q0 -39 -1.5 -76t-2.5 -59.5t-1 -26.5q0 -84 -80.5 -128t-195.5 -44q-139 0 -205 39q-84 53 -84 592z" />
<glyph unicode="}" horiz-adv-x="614" d="M-129 -51q0 66 33 113t84 63q0 12 1 45t1 49q0 178 14 250q6 31 23 53q-14 20 -19 47q-8 41 -8 209v107l-20 8q-45 18 -69 78.5t-24 126.5q0 150 99 178q49 16 196 16q154 0 292 -27.5t171 -80.5q33 -55 42 -163t13 -327l2 -2h3h-5q55 -16 85 -68.5t30 -121.5 q0 -74 -37 -148.5t-90 -95.5q-29 -8 -39 -8q0 -14 -1 -51t-1 -60q-2 -102 -6 -156.5t-25.5 -125t-60.5 -101.5q-72 -51 -274 -51q-180 0 -293 23q-57 16 -87 81.5t-30 139.5z" />
<glyph unicode="~" horiz-adv-x="1009" d="M-53 612q37 88 139 185.5t225 107.5q57 4 121 -14.5t94 -34.5l92 -51q51 -31 62 -31q23 2 41 17.5t24 27.5q23 45 134 0q127 -51 182 -143q37 -55 22 -109q-20 -70 -70 -147.5t-139.5 -145t-185.5 -71.5q-29 -2 -57.5 0t-50 6t-49 12t-43 13.5t-42 17.5l-37 17t-37 19.5 t-30.5 16.5q-53 31 -59 31q-25 0 -52 -27q-31 -31 -110.5 19.5t-138 137.5t-35.5 146z" />
<glyph unicode="&#xa2;" horiz-adv-x="542" d="M-141 623q0 37 2 51q16 229 178 334q-4 14 -4 47q0 47 31 90q53 70 213 69q72 0 139 -22.5t94 -56.5q27 -41 27 -86q0 -18 -2 -29q143 -78 143 -275q0 -96 -27 -157q27 -66 27 -117q0 -57 -31 -115q-37 -70 -119 -118q6 -18 7 -43q0 -47 -39 -93q-59 -68 -217 -67 q-147 0 -209 55q-49 45 -56 109l9 57q-166 123 -166 367z" />
<glyph unicode="&#xa3;" horiz-adv-x="720" d="M-164 299q8 18 49 63q29 31 54 37q-68 33 -95 72q-27 43 6 176t87 170q33 20 63 25q98 375 453 372q217 0 332.5 -136t115.5 -300q0 -41 -22.5 -107.5t-55.5 -113.5q2 -6 6.5 -17.5t4.5 -15.5q12 -43 -9 -133q6 -2 33 -20q33 -29 33 -94.5t-22.5 -146.5t-80 -157.5 t-133.5 -91.5q-14 -2 -53 -2q-92 0 -217 39q-53 16 -55 14q-57 -8 -115 -28q-51 -18 -125 -31q-47 -2 -115.5 89t-111.5 195.5t-27 141.5z" />
<glyph unicode="&#xa5;" horiz-adv-x="845" d="M-174 803q0 78 41 205t82 157q43 31 219 31q172 0 254 -29q90 35 246 35q152 0 209 -35q49 -31 79.5 -150.5t30.5 -213.5q0 -84 -35 -125q-14 -18 -34.5 -29.5t-42 -18.5t-25.5 -9q-18 -18 -53 -74q49 -51 49 -160q0 -121 -49 -199q6 -39 -17.5 -130t-58.5 -124 q-29 -29 -131.5 -45t-218.5 -16q-231 0 -285 53q-25 25 -49.5 109t-28.5 151q-63 66 -63 187q0 104 55 172l-59 92l-31 10q-84 35 -84 156z" />
<glyph unicode="&#xa9;" horiz-adv-x="983" d="M-172 563q6 315 181 490.5t499 177.5q301 2 471 -164t176 -508q10 -348 -165 -538.5t-519 -172.5q-330 18 -490.5 203.5t-152.5 511.5z" />
<glyph unicode="&#xad;" d="M-39 494q0 172 76 227q72 51 321 51q233 0 328 -24q61 -20 95 -91t34 -161q0 -88 -28.5 -174t-73.5 -121q-98 -47 -355 -47q-199 0 -264 26q-59 29 -96 123.5t-37 190.5z" />
<glyph unicode="&#xae;" horiz-adv-x="538" d="M-117 821q6 178 103.5 282.5t281.5 104.5q403 0 404 -411q0 -74 -15.5 -137.5t-53.5 -131t-119 -106.5t-197 -39q-412 0 -404 438z" />
<glyph unicode="&#xb4;" horiz-adv-x="479" d="M-96 872q0 51 18 91q12 25 133 80t254 90.5t168 5.5q37 -35 71 -123t34 -152q0 -154 -127 -184q-102 -20 -291 -21q-160 0 -219 68q-41 47 -41 145z" />
<glyph unicode="&#x2000;" horiz-adv-x="671" />
<glyph unicode="&#x2001;" horiz-adv-x="1345" />
<glyph unicode="&#x2002;" horiz-adv-x="671" />
<glyph unicode="&#x2003;" horiz-adv-x="1345" />
<glyph unicode="&#x2004;" horiz-adv-x="448" />
<glyph unicode="&#x2005;" horiz-adv-x="335" />
<glyph unicode="&#x2006;" horiz-adv-x="223" />
<glyph unicode="&#x2007;" horiz-adv-x="223" />
<glyph unicode="&#x2008;" horiz-adv-x="167" />
<glyph unicode="&#x2009;" horiz-adv-x="268" />
<glyph unicode="&#x200a;" horiz-adv-x="73" />
<glyph unicode="&#x2010;" d="M-39 494q0 172 76 227q72 51 321 51q233 0 328 -24q61 -20 95 -91t34 -161q0 -88 -28.5 -174t-73.5 -121q-98 -47 -355 -47q-199 0 -264 26q-59 29 -96 123.5t-37 190.5z" />
<glyph unicode="&#x2011;" d="M-39 494q0 172 76 227q72 51 321 51q233 0 328 -24q61 -20 95 -91t34 -161q0 -88 -28.5 -174t-73.5 -121q-98 -47 -355 -47q-199 0 -264 26q-59 29 -96 123.5t-37 190.5z" />
<glyph unicode="&#x2012;" d="M-39 494q0 172 76 227q72 51 321 51q233 0 328 -24q61 -20 95 -91t34 -161q0 -88 -28.5 -174t-73.5 -121q-98 -47 -355 -47q-199 0 -264 26q-59 29 -96 123.5t-37 190.5z" />
<glyph unicode="&#x2013;" horiz-adv-x="860" d="M-39 494q0 86 14.5 138t61.5 89q70 53 379 53q270 0 350 -24q63 -18 95 -89t32 -163t-27.5 -179.5t-74.5 -115.5q-80 -47 -418 -47q-227 0 -289 26q-57 27 -90 120.5t-33 191.5z" />
<glyph unicode="&#x2014;" horiz-adv-x="974" d="M-39 494q0 162 76 227q61 51 416 51q330 0 428 -24q63 -20 100 -91t37 -161q0 -92 -28.5 -181.5t-80.5 -117.5q-72 -43 -467 -43q-264 0 -354 28q-57 29 -92 122.5t-35 189.5z" />
<glyph unicode="&#x2018;" horiz-adv-x="368" d="M-172 717q0 131 63 239q78 123 199 188.5t205 67.5q61 -2 151.5 -130t55.5 -181l-37 -47q72 -88 72 -195q0 -160 -119 -247q-86 -63 -213 -64q-180 0 -287 113q-90 102 -90 256z" />
<glyph unicode="&#x2019;" horiz-adv-x="305" d="M-190 926q0 160 118 248q82 63 213 63q180 0 287 -113q90 -104 90 -256q0 -133 -65 -239q-76 -123 -197 -188.5t-203 -67.5q-61 2 -153.5 130t-55.5 181l2 2l33 43q-69 86 -69 197z" />
<glyph unicode="&#x201c;" horiz-adv-x="856" d="M-170 727q0 125 64 238q78 123 200.5 189.5t204.5 66.5q31 0 84 -47.5t92 -106.5q76 68 163 105.5t144 39.5q59 -2 149.5 -130t55.5 -181l-35 -47q72 -88 72 -195q0 -160 -119 -247q-86 -63 -213 -64q-147 0 -256 84q-96 -74 -229 -74q-180 0 -285 113q-92 102 -92 256z " />
<glyph unicode="&#x201d;" horiz-adv-x="815" d="M-190 926q0 160 118 248q82 63 213 63q145 0 250 -80l23 21q88 66 215 65q180 0 284 -113q92 -102 93 -256q0 -129 -66 -239q-76 -123 -196.5 -188.5t-204.5 -67.5q-33 2 -85.5 44t-91.5 97q-76 -70 -163.5 -107.5t-145.5 -39.5q-35 -10 -104.5 42t-112.5 129t-6 122 l49 63q-69 86 -69 197z" />
<glyph unicode="&#x2022;" horiz-adv-x="780" d="M-154 600q0 233 140.5 384t386.5 151q260 0 406.5 -130.5t146.5 -441.5q0 -78 -10.5 -147.5t-44 -150.5t-88 -137t-153 -94t-229.5 -38q-158 0 -271.5 52t-172.5 143.5t-85 190.5t-26 218z" />
<glyph unicode="&#x2026;" horiz-adv-x="1130" d="M-188 242q8 145 119.5 217.5t263.5 60.5q84 -6 159 -49q102 63 248 49q92 -6 158 -49q109 66 252 49q119 -10 212 -88t93 -213q0 -154 -88 -244t-256 -88q-129 6 -201 52q-86 -53 -209 -52q-125 6 -201 52q-86 -53 -206 -52q-180 6 -264 101.5t-80 253.5z" />
<glyph unicode="&#x202f;" horiz-adv-x="268" />
<glyph unicode="&#x205f;" horiz-adv-x="335" />
<glyph unicode="&#x20ac;" horiz-adv-x="858" d="M-131 436q0 53 16 92q-14 41 -14 97q0 74 27 118q23 41 44 56.5t56 19.5q47 176 180 285.5t326 116.5q254 10 401.5 -119t147.5 -410q0 -10 -4 -67q0 -41 -17 -70q10 -23 12 -29q14 -55 15 -108q0 -90 -26.5 -183.5t-83 -183.5t-164 -146.5t-248.5 -56.5q-410 0 -527 373 q-12 4 -39 17q-102 61 -102 198z" />
<glyph unicode="&#x2122;" horiz-adv-x="741" d="M-39 961q0 53 10 98q20 68 55 88t89 20q39 0 174 -12l49 -6q4 4 12 10q39 20 103 21q84 0 122 -21q37 12 72 12q47 0 104.5 -16t84.5 -41q16 -37 28.5 -180t12.5 -242q0 -61 -3 -74v7q-6 -39 -38.5 -66t-79.5 -36t-76 -12t-55 -3l-56 16h-4l-4 -2l2 2q-8 -2 -24 -2 q-33 -20 -102.5 -20t-94.5 10q-18 4 -25 8q-31 -8 -71 -8q-117 0 -174 45q-45 37 -45 133l8 123q-12 4 -15 8q-59 34 -59 140z" />
<glyph unicode="&#xe000;" horiz-adv-x="1000" d="M0 1000h1000v-1000h-1000v1000z" />
<glyph unicode="&#xfb01;" horiz-adv-x="1069" d="M-168 590q0 57 20.5 113.5t53.5 87.5q14 10 47 24q-16 141 67 270q59 84 155.5 131.5t197.5 47.5q102 0 196 -50q74 39 201 50h57q307 0 332 -250q0 -104 -55 -180q27 -59 26 -134q0 -84 -8 -155v2q-8 -106 -8 -139q80 -61 98 -117q14 -49 -24.5 -183.5t-75.5 -168.5 q-35 -31 -127 -49.5t-190 -18.5q-182 0 -256 49l-17 -16q-53 -35 -260 -35q-197 0 -260 35q-55 31 -90 178t-18 188q14 31 32 49q-41 29 -67.5 110t-26.5 161z" />
<glyph unicode="&#xfb02;" horiz-adv-x="1060" d="M-168 590q0 57 20.5 113.5t53.5 87.5q14 10 47 24v14q0 154 67 256q59 84 155.5 131.5t197.5 47.5q145 0 252 -84q76 20 166 20q115 0 211 -33.5t124 -99.5q14 -33 15 -119q0 -111 -11 -284q-12 -213 -12 -285v-19q66 -31 90 -90q18 -51 -19.5 -186t-86.5 -176 q-63 -53 -262 -53q-193 0 -258 26q-29 14 -47 33q-2 -2 -6.5 -5t-6.5 -5q-70 -35 -260 -35q-197 0 -260 35q-55 31 -90 178t-18 188q14 31 32 49q-41 29 -67.5 110t-26.5 161z" />
<glyph unicode="&#xfb03;" horiz-adv-x="1642" d="M991 211q0 78 43 127q37 37 68 53q0 25 -2 31q-43 16 -70 57q-25 37 -24 103q0 119 51 225q-43 63 -49 160q-1 14 -1 26q0 69 27 122q33 62 95.5 92t129 43.5t144.5 13.5q139 0 232.5 -58.5t99.5 -193.5q2 -106 -56 -185q25 -37 25 -127q0 -76 -6 -155v2 q-10 -88 -10 -146q78 -47 98 -110q4 -13 4 -33q0 -53 -29 -150q-39 -134 -75 -169q-35 -31 -126 -49.5t-192 -18.5q-203 0 -266 57q-47 41 -79 128t-32 155zM405 590q0 59 20.5 116.5t53.5 84.5q14 10 47 24q-3 24 -3 48q0 121 70 222q55 84 153.5 131.5t199.5 47.5 q164 0 272 -99q119 -117 119 -282q0 -125 -74 -211q14 -43 15 -99q0 -72 -27 -150.5t-62 -109.5q-16 -12 -22 -16q37 -23 37 -109q0 -72 -33 -164t-76 -120q-53 -35 -260 -35q-199 0 -262 37q-55 31 -89 177q-23 99 -23 149q0 25 6 38q4 10 16 26.5t14 20.5 q-37 29 -64.5 113t-27.5 160zM-168 590q0 59 20.5 116.5t53.5 84.5q14 10 47 24q-3 24 -3 48q0 121 70 222q55 84 153.5 131.5t199.5 47.5q164 0 272 -99q119 -117 119 -282q0 -125 -74 -211q14 -43 15 -99q0 -72 -27 -150.5t-62 -109.5q-16 -12 -22 -16q37 -23 37 -109 q0 -72 -33 -164t-76 -120q-53 -35 -260 -35q-199 0 -262 37q-55 31 -89 177q-23 99 -23 149q0 25 6 38q4 10 16 26.5t14 20.5q-37 29 -64.5 113t-27.5 160z" />
<glyph unicode="&#xfb04;" horiz-adv-x="1634" d="M1006 225q0 86 98 142q2 55 2 187t-2 132q-43 18 -63 49q-11 19 -12 62q0 53 17 142q30 163 72 206q25 23 96.5 39t149.5 16q113 0 210 -33.5t124 -93.5q18 -39 18 -125q0 -80 -12 -292t-12 -296q78 -39 92 -86q6 -21 6 -49q0 -58 -26 -145q-38 -129 -89 -172 q-63 -53 -260 -53q-195 0 -258 26q-51 23 -101 142.5t-50 201.5zM405 590q0 59 20.5 116.5t53.5 84.5q14 10 47 24q-3 24 -3 48q0 121 70 222q55 84 153.5 131.5t199.5 47.5q164 0 272 -99q119 -117 119 -282q0 -125 -74 -211q14 -43 15 -99q0 -72 -27 -150.5t-62 -109.5 q-16 -12 -22 -16q37 -23 37 -109q0 -72 -33 -164t-76 -120q-53 -35 -260 -35q-199 0 -262 37q-55 31 -89 177q-23 99 -23 149q0 25 6 38q4 10 16 26.5t14 20.5q-37 29 -64.5 113t-27.5 160zM-168 590q0 59 20.5 116.5t53.5 84.5q14 10 47 24q-3 24 -3 48q0 121 70 222 q55 84 153.5 131.5t199.5 47.5q164 0 272 -99q119 -117 119 -282q0 -125 -74 -211q14 -43 15 -99q0 -72 -27 -150.5t-62 -109.5q-16 -12 -22 -16q37 -23 37 -109q0 -72 -33 -164t-76 -120q-53 -35 -260 -35q-199 0 -262 37q-55 31 -89 177q-23 99 -23 149q0 25 6 38 q4 10 16 26.5t14 20.5q-37 29 -64.5 113t-27.5 160z" />
<glyph horiz-adv-x="262" />
</font>
</defs>
</svg>
